<svg width="47" height="52" viewBox="0 0 47 52" fill="none" xmlns="http://www.w3.org/2000/svg">
<g id="layer1">
<path id="polygon2989" d="M47 0L42.7182 46.7946L23.4712 52L4.27729 46.8019L0 0H47Z" fill="#264DE4"/>
<path id="polygon2991" d="M23.5 48.0212L39.0525 43.8149L42.7116 3.82678H23.5V48.0212Z" fill="#2965F1"/>
<path id="polygon2993" d="M23.5 21.1849H9.8056L10.333 26.9249H23.5V21.1849Z" fill="#EBEBEB"/>
<path id="polygon2995" d="M23.5 9.56689H23.4797H8.74597L9.28084 15.307H23.5V9.56689Z" fill="#EBEBEB"/>
<path id="polygon2997" d="M10.5958 29.7952L11.4202 38.8079L23.4729 42.072L23.5 42.0647V36.0926L23.4742 36.0993L16.9212 34.3731L16.5023 29.7952H13.3181H10.5958Z" fill="#EBEBEB"/>
<path id="polygon3005" d="M30.7251 26.9249L30.0421 34.3693L23.4797 36.0973V42.0691L35.542 38.8078L35.6305 37.838L37.0132 22.7263L37.1567 21.1849L38.219 9.56689H23.4797V15.307H31.7707L31.2353 21.1849H23.4797V26.9249H30.7251Z" fill="white"/>
</g>
</svg>
