<svg width="57" height="57" viewBox="0 0 57 57" fill="none" xmlns="http://www.w3.org/2000/svg">
<path id="Vector" d="M55.9247 25.9609L31.0378 1.07488C29.6056 -0.358294 27.281 -0.358294 25.8465 1.07488L20.6791 6.24317L27.2345 12.7986C28.7585 12.2843 30.505 12.6293 31.7192 13.8434C32.9397 15.0653 33.282 16.8267 32.755 18.3556L39.0729 24.674C40.6014 24.1471 42.3655 24.4875 43.5856 25.7103C45.2924 27.4157 45.2924 30.1805 43.5856 31.8869C43.18 32.2927 42.6984 32.6146 42.1683 32.8342C41.6383 33.0538 41.0701 33.1669 40.4964 33.1669C39.9226 33.1669 39.3545 33.0538 38.8245 32.8342C38.2944 32.6146 37.8128 32.2927 37.4072 31.8869C36.7978 31.2771 36.3824 30.5007 36.2133 29.6553C36.0441 28.81 36.1288 27.9335 36.4567 27.1362L30.5651 21.2446L30.5642 36.7508C30.9916 36.9613 31.3819 37.2401 31.7196 37.5762C33.4255 39.2817 33.4255 42.0455 31.7196 43.7546C30.0133 45.46 27.2476 45.46 25.5431 43.7546C23.8372 42.046 23.8372 39.2821 25.5431 37.5762C25.9518 37.1669 26.4379 36.843 26.9731 36.6235V20.9737C26.4375 20.7548 25.9512 20.4306 25.5431 20.0205C24.2508 18.7291 23.9397 16.8326 24.6025 15.245L18.1397 8.78216L1.0752 25.8457C0.386749 26.5344 0 27.4683 0 28.4421C0 29.4158 0.386749 30.3497 1.0752 31.0384L25.9626 55.9244C27.3957 57.3576 29.7193 57.3576 31.1548 55.9244L55.9252 31.154C56.6135 30.4651 57.0001 29.5312 57 28.5574C56.9999 27.5835 56.6132 26.6496 55.9247 25.9609Z" fill="#F34F29"/>
</svg>
