<svg width="57" height="57" viewBox="0 0 57 57" fill="none" xmlns="http://www.w3.org/2000/svg">
<g id="file_type_reactjs logo">
<path id="Vector" d="M28.5 32.907C30.9594 32.907 32.9531 30.9133 32.9531 28.4539C32.9531 25.9945 30.9594 24.0007 28.5 24.0007C26.0406 24.0007 24.0469 25.9945 24.0469 28.4539C24.0469 30.9133 26.0406 32.907 28.5 32.907Z" fill="#00D8FF"/>
<path id="Vector_2" d="M28.5 38.6639C23.1476 38.7934 17.8086 38.0719 12.6825 36.5264C10.3145 35.7758 8.106 34.5933 6.16847 33.0387C5.42913 32.5076 4.81342 31.8229 4.3636 31.0315C3.91378 30.2401 3.6405 29.3607 3.5625 28.4538C3.5625 25.5094 6.79725 22.6237 12.2158 20.7356C17.4789 19.0626 22.978 18.2517 28.5 18.3345C33.9483 18.2584 39.3737 19.0546 44.5704 20.6929C46.8509 21.4199 48.9846 22.5452 50.8725 24.0167C51.5992 24.523 52.2057 25.1829 52.6489 25.9497C53.0922 26.7165 53.3614 27.5714 53.4375 28.4538C53.4375 31.514 49.8216 34.6151 43.9969 36.5424C38.9701 38.0376 33.7437 38.753 28.5 38.6639ZM28.5 20.4649C23.217 20.3942 17.9565 21.1651 12.9158 22.7484C7.92834 24.4887 5.69288 26.8685 5.69288 28.4484C5.69288 30.1014 8.09578 32.7003 13.3718 34.5047C18.2758 35.9757 23.3818 36.6605 28.5 36.5335C33.5167 36.6232 38.5176 35.9444 43.3289 34.5207C48.8063 32.7056 51.3 30.1032 51.3 28.4538C51.2101 27.8877 51.0039 27.3465 50.6942 26.8642C50.3845 26.3819 49.9782 25.9691 49.5009 25.6519C47.8119 24.3465 45.9058 23.3491 43.8704 22.7057C38.899 21.1449 33.7101 20.3884 28.5 20.4649Z" fill="#00D8FF"/>
<path id="Vector_3" d="M18.3825 50.6641C17.5515 50.6832 16.7304 50.4816 16.0027 50.0798C13.452 48.6085 12.5685 44.3656 13.639 38.7279C14.8193 33.3327 16.8645 28.1639 19.6953 23.4217C22.3506 18.6641 25.75 14.3621 29.7647 10.6786C31.5337 9.06603 33.5745 7.77968 35.7924 6.87919C36.5946 6.50323 37.4697 6.30835 38.3556 6.30835C39.2416 6.30835 40.1166 6.50323 40.9189 6.87919C43.5711 8.4075 44.4493 13.0886 43.2113 19.0968C41.9945 24.1993 40.0025 29.085 37.3047 33.5837C34.7428 38.285 31.4504 42.5496 27.5506 46.2181C25.7173 47.8939 23.5897 49.2158 21.2752 50.1172C20.3487 50.4611 19.3706 50.646 18.3825 50.6641ZM21.5406 24.4797C18.8404 29.0207 16.8803 33.9626 15.7338 39.1198C14.7487 44.3122 15.6946 47.4347 17.0697 48.2291C18.4947 49.0538 21.9539 48.2719 26.1541 44.6025C29.8769 41.088 33.0194 37.0058 35.4647 32.5078C38.0491 28.207 39.96 23.5359 41.1308 18.6568C42.2958 13.0013 41.2894 9.53859 39.8608 8.71565C39.3254 8.5105 38.7532 8.41867 38.1805 8.44595C37.6077 8.47324 37.0469 8.61906 36.5334 8.87419C34.5592 9.68883 32.7442 10.8454 31.1719 12.2906C27.3362 15.8189 24.089 19.9374 21.5531 24.4904L21.5406 24.4797Z" fill="#00D8FF"/>
<path id="Vector_4" d="M38.6121 50.6873C36.1986 50.6873 33.133 49.2267 29.941 46.4817C25.8561 42.7648 22.3992 38.4116 19.7042 33.5908C16.9089 28.9139 14.88 23.8199 13.6942 18.5019C13.18 16.1622 13.0847 13.7498 13.4128 11.3769C13.4887 10.4966 13.7567 9.64366 14.198 8.87824C14.6394 8.11282 15.2433 7.45354 15.9671 6.9469C18.6158 5.41324 23.1099 6.98965 27.6966 11.0616C31.5096 14.6636 34.7475 18.8291 37.2976 23.4128C40.0911 27.9805 42.1413 32.963 43.3716 38.174C43.908 40.5995 43.9907 43.1034 43.6157 45.5591C43.5264 46.4647 43.2424 47.3403 42.7831 48.1258C42.3237 48.9114 41.7 49.5883 40.9545 50.1102C40.2387 50.5069 39.4303 50.7061 38.6121 50.6873ZM21.5478 32.5185C24.1331 37.1256 27.4353 41.2918 31.3304 44.8608C35.3364 48.3075 38.5142 49.0485 39.8804 48.2452C41.3054 47.4169 42.3563 44.0361 41.2733 38.5659C40.0868 33.5907 38.1203 28.8347 35.4469 24.4744C33.0134 20.0874 29.9227 16.0987 26.2823 12.6469C21.9646 8.81365 18.4626 7.95687 17.0359 8.78337C16.5912 9.14475 16.2262 9.59441 15.9641 10.104C15.702 10.6135 15.5483 11.1719 15.5129 11.7438C15.2297 13.8601 15.3219 16.0097 15.7854 18.094C16.926 23.1797 18.8719 28.0505 21.5496 32.5221L21.5478 32.5185Z" fill="#00D8FF"/>
</g>
</svg>
