<svg width="45" height="44" viewBox="0 0 45 44" fill="none" xmlns="http://www.w3.org/2000/svg">
<g id="vscode logo" clip-path="url(#clip0_31_220)">
<g id="Mask group">
<mask id="mask0_31_220" style="mask-type:luminance" maskUnits="userSpaceOnUse" x="-1" y="0" width="46" height="44">
<g id="Group">
<path id="Vector" d="M31.3249 43.7576C31.6763 43.8948 32.0522 43.9583 32.4292 43.944C32.8062 43.9296 33.1762 43.8379 33.5162 43.6744L42.6107 39.2987C43.0791 39.073 43.4742 38.7196 43.7507 38.2792C44.0271 37.8388 44.1735 37.3293 44.1732 36.8094V7.1371C44.1732 6.07694 43.5669 5.11033 42.6107 4.64954L33.5162 0.273792C33.0021 0.0265167 32.4238 -0.0547996 31.8614 0.0411019C31.2991 0.137003 30.7804 0.405378 30.3773 0.809068L12.9679 16.6906L5.38391 10.9343C5.04193 10.6744 4.61973 10.5425 4.19063 10.5615C3.76153 10.5805 3.35263 10.7491 3.03494 11.0382L0.602811 13.2521C0.413056 13.4244 0.261371 13.6344 0.157464 13.8688C0.0535567 14.1031 -0.00028274 14.3565 -0.000608861 14.6129C-0.000934982 14.8692 0.0522594 15.1228 0.15557 15.3574C0.25888 15.592 0.41003 15.8024 0.599346 15.9752L7.17683 21.9741L0.599346 27.9747C0.41003 28.1476 0.25888 28.358 0.15557 28.5926C0.0522594 28.8272 -0.000934982 29.0807 -0.000608861 29.3371C-0.00028274 29.5934 0.0535567 29.8468 0.157464 30.0812C0.261371 30.3155 0.413056 30.5256 0.602811 30.6979L3.03494 32.91C3.35263 33.1991 3.76153 33.3678 4.19063 33.3867C4.61973 33.4057 5.04193 33.2738 5.38391 33.014L12.9679 27.2576L30.3773 43.1426C30.6468 43.4123 30.9695 43.6229 31.3249 43.761V43.7576ZM33.1368 11.9459L19.9264 21.9724L33.1368 32.0023V11.9442V11.9459Z" fill="#0065A9"/>
</g>
</mask>
<g mask="url(#mask0_31_220)">
<path id="Vector_2" d="M42.6369 4.6544L33.5372 0.271722C33.023 0.0247021 32.4448 -0.0564737 31.8825 0.0394176C31.3202 0.135309 30.8016 0.40353 30.3983 0.806997L0.60303 27.9727C0.413494 28.1452 0.262077 28.3555 0.158468 28.5899C0.0548596 28.8244 0.00134277 29.0779 0.00134277 29.3342C0.00134277 29.5906 0.0548596 29.8441 0.158468 30.0785C0.262077 30.313 0.413494 30.5232 0.60303 30.6958L3.03862 32.9079C3.69516 33.5038 4.68256 33.5489 5.38933 33.0119L41.2684 5.79251C41.5394 5.58672 41.8625 5.46069 42.2013 5.4286C42.54 5.39652 42.881 5.45965 43.1859 5.61089C43.4907 5.76214 43.7472 5.99549 43.9266 6.28466C44.106 6.57383 44.2011 6.90734 44.2011 7.24763V7.14369C44.2011 6.0818 43.5948 5.11519 42.6369 4.6544Z" fill="#0065A9"/>
</g>
</g>
<g id="Mask group_2">
<mask id="mask1_31_220" style="mask-type:luminance" maskUnits="userSpaceOnUse" x="-1" y="0" width="46" height="44">
<g id="Group_2">
<path id="Vector_3" d="M31.3249 43.7576C31.6763 43.8948 32.0522 43.9583 32.4292 43.944C32.8062 43.9296 33.1762 43.8379 33.5162 43.6744L42.6107 39.2987C43.0791 39.073 43.4742 38.7196 43.7507 38.2792C44.0271 37.8388 44.1735 37.3293 44.1732 36.8094V7.1371C44.1732 6.07694 43.5669 5.11033 42.6107 4.64954L33.5162 0.273792C33.0021 0.0265167 32.4238 -0.0547996 31.8614 0.0411019C31.2991 0.137003 30.7804 0.405378 30.3773 0.809068L12.9679 16.6906L5.38391 10.9343C5.04193 10.6744 4.61973 10.5425 4.19063 10.5615C3.76153 10.5805 3.35263 10.7491 3.03494 11.0382L0.602811 13.2521C0.413056 13.4244 0.261371 13.6344 0.157464 13.8688C0.0535567 14.1031 -0.00028274 14.3565 -0.000608861 14.6129C-0.000934982 14.8692 0.0522594 15.1228 0.15557 15.3574C0.25888 15.592 0.41003 15.8024 0.599346 15.9752L7.17683 21.9741L0.599346 27.9747C0.41003 28.1476 0.25888 28.358 0.15557 28.5926C0.0522594 28.8272 -0.000934982 29.0807 -0.000608861 29.3371C-0.00028274 29.5934 0.0535567 29.8468 0.157464 30.0812C0.261371 30.3155 0.413056 30.5256 0.602811 30.6979L3.03494 32.91C3.35263 33.1991 3.76153 33.3678 4.19063 33.3867C4.61973 33.4057 5.04193 33.2738 5.38391 33.014L12.9679 27.2576L30.3773 43.1426C30.6468 43.4123 30.9695 43.6229 31.3249 43.761V43.7576ZM33.1368 11.9459L19.9264 21.9724L33.1368 32.0023V11.9442V11.9459Z" fill="#007ACC"/>
</g>
</mask>
<g mask="url(#mask1_31_220)">
<path id="Vector_4" d="M42.6367 39.2916L33.5353 43.6743C33.0211 43.9213 32.4429 44.0025 31.8805 43.9066C31.3182 43.8107 30.7996 43.5425 30.3964 43.139L0.601076 15.9734C0.411541 15.8008 0.260123 15.5906 0.156515 15.3561C0.0529065 15.1216 -0.000610352 14.8681 -0.000610352 14.6118C-0.000610352 14.3555 0.0529065 14.102 0.156515 13.8675C0.260123 13.633 0.411541 13.4228 0.601076 13.2502L3.03667 11.0381C3.6932 10.4422 4.6806 10.3971 5.38738 10.9342L41.2682 38.1535C41.5392 38.3593 41.8623 38.4853 42.201 38.5174C42.5398 38.5495 42.8808 38.4864 43.1856 38.3351C43.4905 38.1839 43.747 37.9505 43.9264 37.6614C44.1058 37.3722 44.2008 37.0387 44.2009 36.6984V36.8023C44.2009 37.8642 43.5946 38.8291 42.6367 39.2916Z" fill="#007ACC"/>
</g>
</g>
<g id="Mask group_3">
<mask id="mask2_31_220" style="mask-type:luminance" maskUnits="userSpaceOnUse" x="-1" y="0" width="46" height="44">
<g id="Group_3">
<path id="Vector_5" d="M31.3249 43.7576C31.6763 43.8948 32.0522 43.9583 32.4292 43.944C32.8062 43.9296 33.1762 43.8379 33.5162 43.6744L42.6107 39.2987C43.0791 39.073 43.4742 38.7196 43.7507 38.2792C44.0271 37.8388 44.1735 37.3293 44.1732 36.8094V7.1371C44.1732 6.07694 43.5669 5.11033 42.6107 4.64954L33.5162 0.273792C33.0021 0.0265167 32.4238 -0.0547996 31.8614 0.0411019C31.2991 0.137003 30.7804 0.405378 30.3773 0.809068L12.9679 16.6906L5.38391 10.9343C5.04193 10.6744 4.61973 10.5425 4.19063 10.5615C3.76153 10.5805 3.35263 10.7491 3.03494 11.0382L0.602811 13.2521C0.413056 13.4244 0.261371 13.6344 0.157464 13.8688C0.0535567 14.1031 -0.00028274 14.3565 -0.000608861 14.6129C-0.000934982 14.8692 0.0522594 15.1228 0.15557 15.3574C0.25888 15.592 0.41003 15.8024 0.599346 15.9752L7.17683 21.9741L0.599346 27.9747C0.41003 28.1476 0.25888 28.358 0.15557 28.5926C0.0522594 28.8272 -0.000934982 29.0807 -0.000608861 29.3371C-0.00028274 29.5934 0.0535567 29.8468 0.157464 30.0812C0.261371 30.3155 0.413056 30.5256 0.602811 30.6979L3.03494 32.91C3.35263 33.1991 3.76153 33.3678 4.19063 33.3867C4.61973 33.4057 5.04193 33.2738 5.38391 33.014L12.9679 27.2576L30.3773 43.1426C30.6468 43.4123 30.9695 43.6229 31.3249 43.761V43.7576ZM33.1368 11.9459L19.9264 21.9724L33.1368 32.0023V11.9442V11.9459Z" fill="#1F9CF0"/>
</g>
</mask>
<g mask="url(#mask2_31_220)">
<path id="Vector_6" d="M33.5076 43.676C32.9933 43.9234 32.4149 44.005 31.8523 43.9094C31.2897 43.8138 30.7707 43.5458 30.3669 43.1425C31.3855 44.1611 33.1282 43.4404 33.1282 41.9992V1.95227C33.1282 0.512738 31.3855 -0.209624 30.3669 0.808958C30.7707 0.405631 31.2897 0.13766 31.8523 0.042082C32.4149 -0.0534961 32.9933 0.0280377 33.5076 0.275415L42.6073 4.65116C43.076 4.87627 43.4717 5.22917 43.7488 5.66925C44.0258 6.10933 44.1729 6.6187 44.1732 7.13872V36.8127C44.1732 37.8729 43.5669 38.8395 42.609 39.3003L33.5093 43.676H33.5076Z" fill="#1F9CF0"/>
</g>
</g>
<g id="Mask group_4">
<mask id="mask3_31_220" style="mask-type:luminance" maskUnits="userSpaceOnUse" x="-1" y="0" width="46" height="44">
<g id="Group_4">
<path id="Vector_7" d="M31.3249 43.7576C31.6763 43.8948 32.0522 43.9583 32.4292 43.944C32.8062 43.9296 33.1762 43.8379 33.5162 43.6744L42.6107 39.2987C43.0791 39.073 43.4742 38.7196 43.7507 38.2792C44.0271 37.8388 44.1735 37.3293 44.1732 36.8094V7.1371C44.1732 6.07694 43.5669 5.11033 42.6107 4.64954L33.5162 0.273792C33.0021 0.0265167 32.4238 -0.0547996 31.8614 0.0411019C31.2991 0.137003 30.7804 0.405378 30.3773 0.809068L12.9679 16.6906L5.38391 10.9343C5.04193 10.6744 4.61973 10.5425 4.19063 10.5615C3.76153 10.5805 3.35263 10.7491 3.03494 11.0382L0.602811 13.2521C0.413056 13.4244 0.261371 13.6344 0.157464 13.8688C0.0535567 14.1031 -0.00028274 14.3565 -0.000608861 14.6129C-0.000934982 14.8692 0.0522594 15.1228 0.15557 15.3574C0.25888 15.592 0.41003 15.8024 0.599346 15.9752L7.17683 21.9741L0.599346 27.9747C0.41003 28.1476 0.25888 28.358 0.15557 28.5926C0.0522594 28.8272 -0.000934982 29.0807 -0.000608861 29.3371C-0.00028274 29.5934 0.0535567 29.8468 0.157464 30.0812C0.261371 30.3155 0.413056 30.5256 0.602811 30.6979L3.03494 32.91C3.35263 33.1991 3.76153 33.3678 4.19063 33.3867C4.61973 33.4057 5.04193 33.2738 5.38391 33.014L12.9679 27.2576L30.3773 43.1426C30.6468 43.4123 30.9695 43.6229 31.3249 43.761V43.7576ZM33.1368 11.9459L19.9264 21.9724L33.1368 32.0023V11.9442V11.9459Z" fill="url(#paint0_linear_31_220)" fill-opacity="0.25"/>
</g>
</mask>
<g mask="url(#mask3_31_220)">
<path id="Vector_8" d="M31.3249 43.7576C31.6763 43.8948 32.0522 43.9583 32.4292 43.944C32.8062 43.9296 33.1762 43.8379 33.5162 43.6744L42.6107 39.2987C43.0791 39.073 43.4742 38.7196 43.7507 38.2792C44.0271 37.8388 44.1735 37.3293 44.1732 36.8094V7.1371C44.1732 6.07694 43.5669 5.11033 42.6107 4.64954L33.5162 0.273792C33.0021 0.0265167 32.4238 -0.0547996 31.8614 0.0411019C31.2991 0.137003 30.7804 0.405378 30.3773 0.809068L12.9679 16.6906L5.38391 10.9343C5.04193 10.6744 4.61973 10.5425 4.19063 10.5615C3.76153 10.5805 3.35263 10.7491 3.03494 11.0382L0.602811 13.2521C0.413056 13.4244 0.261371 13.6344 0.157464 13.8688C0.0535567 14.1031 -0.00028274 14.3565 -0.000608861 14.6129C-0.000934982 14.8692 0.0522594 15.1228 0.15557 15.3574C0.25888 15.592 0.41003 15.8024 0.599346 15.9752L7.17683 21.9741L0.599346 27.9747C0.41003 28.1476 0.25888 28.358 0.15557 28.5926C0.0522594 28.8272 -0.000934982 29.0807 -0.000608861 29.3371C-0.00028274 29.5934 0.0535567 29.8468 0.157464 30.0812C0.261371 30.3155 0.413056 30.5256 0.602811 30.6979L3.03494 32.91C3.35263 33.1991 3.76153 33.3678 4.19063 33.3867C4.61973 33.4057 5.04193 33.2738 5.38391 33.014L12.9679 27.2576L30.3773 43.1426C30.6468 43.4123 30.9695 43.6229 31.3249 43.761V43.7576ZM33.1368 11.9459L19.9264 21.9724L33.1368 32.0023V11.9442V11.9459Z" fill="url(#paint1_linear_31_220)" fill-opacity="0.25"/>
</g>
</g>
</g>
<defs>
<linearGradient id="paint0_linear_31_220" x1="2208.69" y1="0.00195312" x2="2208.69" y2="4394.4" gradientUnits="userSpaceOnUse">
<stop stop-color="white"/>
<stop offset="1" stop-color="white" stop-opacity="0"/>
</linearGradient>
<linearGradient id="paint1_linear_31_220" x1="2208.69" y1="0.00195312" x2="2208.69" y2="4394.4" gradientUnits="userSpaceOnUse">
<stop stop-color="white"/>
<stop offset="1" stop-color="white" stop-opacity="0"/>
</linearGradient>
<clipPath id="clip0_31_220">
<rect width="44.3465" height="44" fill="white"/>
</clipPath>
</defs>
</svg>
